<?xml version="1.0" encoding="UTF-8" standalone="no"?>
<!-- Created with Inkscape (http://www.inkscape.org/) -->

<svg
   xmlns:dc="http://purl.org/dc/elements/1.1/"
   xmlns:cc="http://creativecommons.org/ns#"
   xmlns:rdf="http://www.w3.org/1999/02/22-rdf-syntax-ns#"
   xmlns:svg="http://www.w3.org/2000/svg"
   xmlns="http://www.w3.org/2000/svg"
   xmlns:sodipodi="http://sodipodi.sourceforge.net/DTD/sodipodi-0.dtd"
   xmlns:inkscape="http://www.inkscape.org/namespaces/inkscape"
   width="199"
   height="50"
   id="svg2"
   version="1.1"
   inkscape:version="0.48.4 r9939"
   sodipodi:docname="New document 1">
  <defs
     id="defs4" />
  <sodipodi:namedview
     id="base"
     pagecolor="#ffffff"
     bordercolor="#666666"
     borderopacity="1.0"
     inkscape:pageopacity="0.0"
     inkscape:pageshadow="2"
     inkscape:zoom="8.6733668"
     inkscape:cx="99.5"
     inkscape:cy="25"
     inkscape:document-units="px"
     inkscape:current-layer="layer1"
     showgrid="false"
     fit-margin-top="0"
     fit-margin-left="0"
     fit-margin-right="0"
     fit-margin-bottom="0"
     inkscape:window-width="1920"
     inkscape:window-height="1080"
     inkscape:window-x="0"
     inkscape:window-y="0"
     inkscape:window-maximized="0" />
  <metadata
     id="metadata7">
    <rdf:RDF>
      <cc:Work
         rdf:about="">
        <dc:format>image/svg+xml</dc:format>
        <dc:type
           rdf:resource="http://purl.org/dc/dcmitype/StillImage" />
        <dc:title></dc:title>
      </cc:Work>
    </rdf:RDF>
  </metadata>
  <g
     inkscape:label="Layer 1"
     inkscape:groupmode="layer"
     id="layer1"
     transform="translate(388.07144,-121.6479)">
    <path
       style="fill:#c70303;fill-opacity:1"
       d="m -343.3449,163.87578 -7.72654,-7.77213 0,-6.69166 0,-6.69167 9.75,-0.28621 c 9.65701,-0.28348 9.75,-0.31005 9.75,-2.78621 0,-2.47616 -0.0931,-3.65018 -9.75,-3.36269 l -9.75,0.29027 0,-7.04535 0,-7.04534 12.43066,0.33155 c 10.67901,0.28484 12.81923,0.62209 15.18821,2.39335 4.51271,3.37409 6.63228,6.99656 7.13105,12.18738 0.82049,8.53897 -4.63096,15.96761 -13.07943,17.8232 l -2.91027,0.6392 7.11989,7.16773 c 3.91594,3.94225 7.69637,8.18642 7.69637,8.58599 0,0.39956 -4.52454,0.0347 -9.34994,0.0347 l -8.77346,0 z m 48.4577,6.68797 c -11.5823,-2.23825 -19.20667,-11.90205 -19.16228,-24.28797 0.0271,-7.569 2.34825,-12.98972 7.49833,-17.51155 5.25956,-4.61795 9.90999,-6.35978 16.97971,-6.35978 14.32542,0 24.625,9.91439 24.625,23.70406 0,16.37433 -13.7291,27.58809 -29.94076,24.45524 z m 12.37894,-17.19782 c 4.43175,-5.82401 2.40836,-13.25755 -4.30325,-15.80931 -3.27094,-1.2436 -8.71235,0.47141 -10.75683,3.39031 -5.24804,7.49263 2.94356,17.55211 11.44554,14.0554 1.89674,-0.7801 3.52329,-1.51648 3.61454,-1.6364 z m 45.0962,18.22374 c 0.003,-0.4125 4.10056,-12.01677 8.68315,-24.94177 l 8.33199,-23.5 6.94467,-0.28941 6.94468,-0.28941 8.2441,23.78941 c 4.53425,13.08418 8.46297,24.37721 8.44865,24.81381 -0.0143,0.43659 -3.48184,0.431 -7.42377,0.26941 l -7.16715,-0.0632 -4.23791,-14.05232 c -2.29582,-7.6126 -4.46311,-14.04692 -4.73834,-14.32215 -0.27523,-0.27523 -2.66884,6.05704 -5.31913,14.07173 l -4.81871,14.57215 -6.7758,0 c -3.7267,0 -7.11933,0.35427 -7.11643,-0.0582 z m -150.4376,-14.69177 -0.0677,-13.8653 9.50358,-0.171 c 10.1098,-0.18191 11.09566,-0.62924 11.41418,-4.34271 0.18049,-2.10422 -3.06798,-2.87099 -11.60705,-2.87099 l -9.34952,0.23059 -0.1153,-6.60827 0,-6.72357 9.25,-0.11104 c 10.71831,-0.12867 14.46387,0.25921 18.85492,3.95403 6.10439,5.1365 7.72633,14.2451 3.62128,20.33658 -3.39686,5.04061 -8.26095,7.92168 -13.37408,7.92168 l -4.35212,0 0,8 0,9.03766 c -4.68548,0 -9.37096,-0.1153 -14.05644,-0.1153 z m 122.77822,6.75 0,-7 2.80887,0 c 5.57181,0 6.53675,-1.76011 7.2007,-13.13448 0.96917,-16.60305 4.58493,-20.855 17.74043,-20.86178 l 7.25,-0.004 0,7.5 0,7.5 -2.75,0.0153 c -5.15342,0.0287 -5.63739,1.02787 -6.24534,12.89371 -0.45783,8.93584 -0.95161,11.5523 -2.60585,13.80796 -3.27011,4.45901 -7.95088,6.27971 -16.14881,6.28146 l -7.25,0.002 0,-7 z"
       id="path3015"
       inkscape:connector-curvature="0"
       sodipodi:nodetypes="ccccssscccsssscsssccsssssscsssccscccscscssscscccssscccsssscccccccssccccssscccc" />
  </g>
</svg>
