<?xml version="1.0" encoding="UTF-8" standalone="no"?>
<!-- Created with Inkscape (http://www.inkscape.org/) -->

<svg
   xmlns:dc="http://purl.org/dc/elements/1.1/"
   xmlns:cc="http://creativecommons.org/ns#"
   xmlns:rdf="http://www.w3.org/1999/02/22-rdf-syntax-ns#"
   xmlns:svg="http://www.w3.org/2000/svg"
   xmlns="http://www.w3.org/2000/svg"
   xmlns:sodipodi="http://sodipodi.sourceforge.net/DTD/sodipodi-0.dtd"
   xmlns:inkscape="http://www.inkscape.org/namespaces/inkscape"
   width="1052.3622"
   height="744.09448"
   id="svg5954"
   version="1.1"
   inkscape:version="0.48.4 r9939"
   sodipodi:docname="New document 23">
  <defs
     id="defs5956">
    <marker
       inkscape:stockid="Arrow2Mend"
       orient="auto"
       refY="0.0"
       refX="0.0"
       id="Arrow2Mend"
       style="overflow:visible;">
      <path
         id="path6503"
         style="fill-rule:evenodd;stroke-width:0.62500000;stroke-linejoin:round;"
         d="M 8.7185878,4.0337352 L -2.2072895,0.016013256 L 8.7185884,-4.0017078 C 6.9730900,-1.6296469 6.9831476,1.6157441 8.7185878,4.0337352 z "
         transform="scale(0.6) rotate(180) translate(0,0)" />
    </marker>
    <marker
       inkscape:stockid="Arrow1Lend"
       orient="auto"
       refY="0.0"
       refX="0.0"
       id="Arrow1Lend"
       style="overflow:visible;">
      <path
         id="path6479"
         d="M 0.0,0.0 L 5.0,-5.0 L -12.5,0.0 L 5.0,5.0 L 0.0,0.0 z "
         style="fill-rule:evenodd;stroke:#000000;stroke-width:1.0pt;"
         transform="scale(0.8) rotate(180) translate(12.5,0)" />
    </marker>
  </defs>
  <sodipodi:namedview
     id="base"
     pagecolor="#ffffff"
     bordercolor="#666666"
     borderopacity="1.0"
     inkscape:pageopacity="0.0"
     inkscape:pageshadow="2"
     inkscape:zoom="1.1839894"
     inkscape:cx="526.18109"
     inkscape:cy="372.04724"
     inkscape:document-units="px"
     inkscape:current-layer="layer1"
     showgrid="false"
     inkscape:window-width="1920"
     inkscape:window-height="1080"
     inkscape:window-x="0"
     inkscape:window-y="0"
     inkscape:window-maximized="0" />
  <metadata
     id="metadata5959">
    <rdf:RDF>
      <cc:Work
         rdf:about="">
        <dc:format>image/svg+xml</dc:format>
        <dc:type
           rdf:resource="http://purl.org/dc/dcmitype/StillImage" />
        <dc:title></dc:title>
      </cc:Work>
    </rdf:RDF>
  </metadata>
  <g
     inkscape:label="Layer 1"
     inkscape:groupmode="layer"
     id="layer1"
     transform="translate(0,-308.2677)">
    <path
       style="fill:none;stroke:#000000;stroke-width:53.45507812;stroke-linecap:butt;stroke-linejoin:miter;stroke-miterlimit:4;stroke-opacity:1;stroke-dasharray:none;marker-end:url(#Arrow2Mend)"
       d="m 85.34315,772.71497 817.18373,0"
       id="path5962"
       inkscape:connector-curvature="0" />
    <text
       xml:space="preserve"
       style="font-size:84.28252411px;font-style:normal;font-variant:normal;font-weight:bold;font-stretch:normal;line-height:125%;letter-spacing:0px;word-spacing:0px;fill:#000000;fill-opacity:1;stroke:none;font-family:Courier New;-inkscape-font-specification:Sans Bold"
       x="223.96301"
       y="568.61566"
       id="text7102"
       sodipodi:linespacing="125%"><tspan
         sodipodi:role="line"
         id="tspan7104"
         x="223.96301"
         y="568.61566"
         style="font-size:210.70631409px;font-style:italic;font-variant:normal;font-weight:bold;font-stretch:normal;font-family:Monospace;-inkscape-font-specification:Monospace Bold Italic">Festen</tspan></text>
    <g
       transform="matrix(0.28164655,0,0,-0.28164655,56.857189,573.20551)"
       inkscape:label="ink_ext_XXXXXX"
       id="g7133">
      <g
         transform="scale(0.1,0.1)"
         id="g7135">
        <path
           id="path7137"
           style="fill:#231f20;fill-opacity:1;fill-rule:evenodd;stroke:none"
           d="m 2405.48,2879.79 455.98,377.42 c 164.06,-435.96 851.81,-1729.62 1483.01,-1273.19 207.15,143.32 362.93,332.02 462.78,580.82 132.88,265.75 194.89,540.36 194.89,823.82 0,327.76 -79.72,628.94 -248.03,912.4 -168.32,283.47 -416.35,513.78 -752.98,682.09 -327.76,177.17 -699.82,256.89 -1098.45,256.89 -460.64,0 -885.85,-106.3 -1266.76,-318.9 C 1263.86,4708.54 962.672,4398.5 758.926,3999.88 546.32,3592.4 440.02,3167.2 440.02,2706.57 c 0,-487.2 106.3,-894.68 318.906,-1249.01 203.746,-345.47 504.934,-602.365 903.564,-770.669 398.63,-159.45 832.7,-248.032 1319.92,-248.032 513.79,0 939,88.582 1293.34,265.746 345.48,168.309 602.38,380.905 779.54,628.935 l 531.51,0 C 5489.36,1129.8 5312.19,917.203 5073.01,704.605 4824.97,483.148 4541.5,314.844 4204.88,190.828 3868.26,66.8125 3460.77,4.80469 2991.27,4.80469 2548.34,4.80469 2149.71,57.9531 1777.65,173.109 1414.45,288.27 1095.55,456.574 838.648,678.031 581.754,899.488 386.867,1165.24 253.988,1457.56 85.6797,1829.61 5.95313,2228.23 5.95313,2653.43 c 0,487.2 97.44487,938.97 292.33187,1373.03 239.18,531.49 584.66,938.97 1018.725,1222.44 442.92,283.46 983.29,425.19 1612.24,425.19 487.22,0 921.29,-97.44 1311.06,-301.18 389.78,-194.88 690.96,-496.06 912.43,-885.82 194.89,-345.48 292.33,-708.66 292.33,-1107.29 0,-575.78 -203.75,-1080.71 -602.38,-1523.62 -265.4,-308.73 -578.01,-387.23 -927.81,-386.65 -724.02,1.2 -1241.78,964.42 -1509.4,1410.26"
           inkscape:connector-curvature="0" />
        <path
           id="path7139"
           style="fill:#231f20;fill-opacity:1;fill-rule:evenodd;stroke:none"
           d="m 1077.83,1492.99 611.24,2887.8 611.23,0 -265.75,-1222.44 1355.34,1222.44 806.13,0 -1311.06,-1133.86 -442.92,-380.91 -566.95,-487.2 -186.02,-885.83 -611.24,0"
           inkscape:connector-curvature="0" />
      </g>
    </g>
  </g>
</svg>
